<svg id="Groupe_949" data-name="Groupe 949" xmlns="http://www.w3.org/2000/svg" width="64.661" height="64.661" viewBox="0 0 64.661 64.661">
  <path id="Tracé_886" data-name="Tracé 886" d="M67.966,42.888a32.333,32.333,0,1,1-22.86,9.47,32.21,32.21,0,0,1,22.86-9.47Zm21.089,11.26a29.842,29.842,0,1,0,8.718,21.071,29.786,29.786,0,0,0-8.718-21.071Z" transform="translate(-35.636 -42.888)" fill="#8fc78f"/>
  <path id="Tracé_887" data-name="Tracé 887" d="M83.659,76.907V74.292a1.388,1.388,0,0,1,1.47-1.555h3.755V67.153h-5.17c-5.751,0-7.04,4.135-7.04,6.821v2.933H73.336v6.521H76.71V99.721h6.7V83.428h4.953l.218-2.563.4-3.958Z" transform="translate(-48.825 -51.097)" fill="#8fc78f" fill-rule="evenodd"/>
</svg>
