<?xml version="1.0" encoding="utf-8"?>
<!-- Generator: Adobe Illustrator 23.0.3, SVG Export Plug-In . SVG Version: 6.00 Build 0)  -->
<svg version="1.1" id="Groupe_949" xmlns="http://www.w3.org/2000/svg" xmlns:xlink="http://www.w3.org/1999/xlink" x="0px" y="0px"
	 viewBox="0 0 64.7 64.7" style="enable-background:new 0 0 64.7 64.7;" xml:space="preserve">
<style type="text/css">
	.st0{fill:#8FC78F;}
	.st1{fill-rule:evenodd;clip-rule:evenodd;fill:#FFFFFF;}
</style>
<path id="Tracé_886" class="st0" d="M32.3,0c17.9,0,32.3,14.5,32.3,32.3c0,17.9-14.5,32.3-32.3,32.3S0,50.2,0,32.3
	c0-8.6,3.4-16.8,9.5-22.9C15.5,3.4,23.8,0,32.3,0z"/>
<path id="Tracé_887" class="st1" d="M34.8,25.8v-2.6c-0.1-0.8,0.4-1.5,1.2-1.5c0.1,0,0.2,0,0.3,0h3.8v-5.6h-5.2c-5.8,0-7,4.1-7,6.8
	v2.9h-3.3v6.5h3.4v16.3h6.7V32.3h5l0.2-2.6l0.4-4H34.8z"/>
</svg>
