<svg xmlns="http://www.w3.org/2000/svg" width="64.661" height="64.661" viewBox="0 0 64.661 64.661">
  <g id="Groupe_950" data-name="Groupe 950" transform="translate(0)">
    <path id="Tracé_888" data-name="Tracé 888" d="M193.9,42.888a32.334,32.334,0,1,1-22.86,9.47,32.178,32.178,0,0,1,22.86-9.47Zm21.089,11.26A29.844,29.844,0,1,0,223.7,75.219a29.786,29.786,0,0,0-8.718-21.071Z" transform="translate(-161.568 -42.888)" fill="#8fc78f"/>
    <path id="Tracé_889" data-name="Tracé 889" d="M194.046,83.472a8.115,8.115,0,1,1,8.106,8.124,8.125,8.125,0,0,1-8.106-8.124Zm16.494-15.88H193.783a7.53,7.53,0,0,0-7.51,7.51V91.859a7.541,7.541,0,0,0,7.51,7.51h16.757a7.53,7.53,0,0,0,7.51-7.51V75.1a7.518,7.518,0,0,0-7.51-7.51ZM193.783,69.47h16.757a5.639,5.639,0,0,1,5.632,5.633V91.859a5.638,5.638,0,0,1-5.632,5.632H193.783a5.639,5.639,0,0,1-5.633-5.632V75.1a5.639,5.639,0,0,1,5.633-5.633Zm18.423,2.368a1.649,1.649,0,1,0,1.65,1.649,1.648,1.648,0,0,0-1.65-1.649Zm.193,11.634a10.247,10.247,0,1,0-10.247,10.247A10.247,10.247,0,0,0,212.4,83.472Z" transform="translate(-169.821 -51.141)" fill="#8fc78f" stroke="#8fc78f" stroke-width="0.5" fill-rule="evenodd"/>
  </g>
</svg>
