<?xml version="1.0" encoding="utf-8"?>
<!-- Generator: Adobe Illustrator 23.0.3, SVG Export Plug-In . SVG Version: 6.00 Build 0)  -->
<svg version="1.1" id="Calque_1" xmlns="http://www.w3.org/2000/svg" xmlns:xlink="http://www.w3.org/1999/xlink" x="0px" y="0px"
	 viewBox="0 0 64.7 64.7" style="enable-background:new 0 0 64.7 64.7;" xml:space="preserve">
<style type="text/css">
	.st0{fill:#8FC78F;}
	.st1{fill-rule:evenodd;clip-rule:evenodd;fill:#FFFFFF;}
	.st2{fill:#FFFFFF;}
</style>
<g id="Groupe_950" transform="translate(0)">
	<g id="Tracé_888">
		<path class="st0" d="M32.3,0c17.9,0,32.3,14.5,32.3,32.3c0,17.9-14.5,32.3-32.3,32.3S0,50.2,0,32.3c0-8.6,3.4-16.8,9.5-22.9
			C15.5,3.4,23.8,0,32.3,0z"/>
	</g>
	<g id="Tracé_889">
		<path class="st1" d="M24.2,32.3c0-4.5,3.6-8.1,8.1-8.1c4.5,0,8.1,3.6,8.1,8.1c0,4.5-3.6,8.1-8.1,8.1
			C27.9,40.4,24.2,36.8,24.2,32.3z M40.7,16.5H24c-4.1,0-7.5,3.4-7.5,7.5v16.8c0,4.1,3.4,7.5,7.5,7.5h16.8c4.1,0,7.5-3.4,7.5-7.5V24
			C48.2,19.8,44.9,16.5,40.7,16.5L40.7,16.5z M24,18.3h16.8c3.1,0,5.6,2.5,5.6,5.6v16.8c0,3.1-2.5,5.6-5.6,5.6H24
			c-3.1,0-5.6-2.5-5.6-5.6V24C18.3,20.8,20.9,18.3,24,18.3L24,18.3z M42.4,20.7c-0.9,0-1.6,0.7-1.6,1.6s0.7,1.6,1.6,1.6
			c0.9,0,1.6-0.7,1.6-1.6C44,21.4,43.3,20.7,42.4,20.7C42.4,20.7,42.4,20.7,42.4,20.7z M42.6,32.3c0-5.7-4.6-10.2-10.2-10.2
			c-5.7,0-10.2,4.6-10.2,10.2c0,5.7,4.6,10.2,10.2,10.2l0,0C38,42.6,42.6,38,42.6,32.3C42.6,32.3,42.6,32.3,42.6,32.3L42.6,32.3z"/>
		<path class="st2" d="M40.7,48.5H24c-4.3,0-7.7-3.5-7.8-7.8V24c0-4.3,3.5-7.7,7.8-7.8l16.8,0c4.3,0,7.8,3.5,7.8,7.8v16.8
			C48.5,45,45,48.5,40.7,48.5z M24,16.7c-4,0-7.2,3.3-7.3,7.3v16.8c0,4,3.3,7.2,7.3,7.3h16.8c4,0,7.2-3.3,7.3-7.3V24
			c0-4-3.2-7.2-7.1-7.3l-0.1,0H24z M40.7,46.6H24c-3.2,0-5.9-2.6-5.9-5.9V24c0-3.2,2.6-5.9,5.9-5.9l16.8,0c3.2,0,5.9,2.6,5.9,5.9
			v16.8C46.6,44,44,46.6,40.7,46.6z M23.8,18.6c-2.9,0.1-5.2,2.5-5.2,5.4v16.8c0,3,2.4,5.4,5.4,5.4h16.8c3,0,5.4-2.4,5.4-5.4V24
			c0-3-2.4-5.4-5.4-5.4H23.8z M32.3,42.8c-5.8,0-10.5-4.7-10.5-10.5s4.7-10.5,10.5-10.5c5.7,0,10.4,4.6,10.5,10.3l0,0l0,0.2
			C42.8,38.1,38.1,42.8,32.3,42.8z M32.3,22.3c-5.5,0-10,4.5-10,10c0,5.5,4.5,10,10,10c5.5,0,10-4.4,10-9.9l0-0.1
			C42.3,26.8,37.8,22.3,32.3,22.3z M32.3,40.7C32.3,40.7,32.3,40.7,32.3,40.7c-4.6,0-8.4-3.8-8.4-8.4v0c0-4.6,3.8-8.4,8.4-8.4
			c0,0,0,0,0,0c2.2,0,4.3,0.9,5.9,2.5s2.4,3.7,2.4,5.9c0,2.2-0.9,4.3-2.5,5.9C36.7,39.8,34.6,40.7,32.3,40.7z M24.5,32.3
			c0,4.3,3.5,7.9,7.9,7.9c0,0,0,0,0,0c2.1,0,4.1-0.8,5.6-2.3c1.5-1.5,2.3-3.5,2.3-5.6s-0.8-4.1-2.3-5.6c-1.5-1.5-3.5-2.3-5.6-2.3
			c0,0,0,0,0,0C28,24.5,24.5,28,24.5,32.3L24.5,32.3z M42.4,24.2c-0.5,0-1-0.2-1.3-0.6c-0.4-0.4-0.6-0.8-0.6-1.3
			c0-1,0.8-1.9,1.9-1.9h0c1,0,1.9,0.9,1.9,1.9S43.4,24.2,42.4,24.2L42.4,24.2z M42.4,20.7v0.2c-0.8,0-1.4,0.6-1.4,1.4
			c0,0.4,0.1,0.7,0.4,1c0.3,0.3,0.6,0.4,1,0.4h0c0.8,0,1.4-0.6,1.4-1.4s-0.6-1.4-1.4-1.4L42.4,20.7z"/>
	</g>
</g>
</svg>
