<svg xmlns="http://www.w3.org/2000/svg" width="64" height="78.468" viewBox="0 0 64 78.468">
  <g id="Groupe_1204" data-name="Groupe 1204" transform="translate(-1272 -651.695)">
    <g id="Groupe_943" data-name="Groupe 943" transform="translate(1280 680)">
      <g id="Groupe_933" data-name="Groupe 933" transform="translate(0 0.112)">
        <path id="Tracé_248" data-name="Tracé 248" d="M1.384,2.159a3.894,3.894,0,0,1,3.87,0C4.317,3.487,2.717,3.389.738,3.45c-.493.15-.4.894-.805,1.129A6,6,0,0,1,3.48,4.255c-.427,2.369-4.6.987-4.839,3.549C-.881,7.612.648,6.292,2.029,7,1.679,8.69-.116,8.94-1.68,9.416A13.221,13.221,0,0,1-2,11.353C-1.427,11.066-.5,9.737.9,9.74.941,11.2-.494,12.527-2,12.965c.126.933-.234,1.379-.162,2.258.784-.776.984-2.136,2.419-2.258.13,2.225-1.159,3.033-2.1,4.194.15.547.215,1.182.322,1.774.583-.976.712-2.406,1.936-2.742A5.1,5.1,0,0,1-.874,20.545a7.39,7.39,0,0,0,.645,1.937,5.468,5.468,0,0,1,1.291-2.9c.948,1.048.333,3.592-.484,4.353a5.745,5.745,0,0,0,.807,1.453c.027-.718-.095-2.712.967-2.9.678.774.668,3.213.162,4.193a2.606,2.606,0,0,0,1.129,1.45A4.1,4.1,0,0,1,3.965,24.9c1.9,1.195-.063,4.821,1.936,5.485-.171-.827-.775-1.9-.162-2.581.51-.08.569.291,1.129.162a7.816,7.816,0,0,1,.483,3.386c.244.293.7.381.969.646-.327-.881-.977-2.132-.322-3.065a4.532,4.532,0,0,1,1.775,3.71,1.607,1.607,0,0,0,1.128.645c.018-.5-.928-1.434-.645-2.74a4.472,4.472,0,0,1,2.581,3.386,3.889,3.889,0,0,0,1.613.483c-.011-.584-1.2-1.382-.967-2.741,1.677.364,2.474,1.61,2.9,3.227.754.158,1.342.484,2.1.644a1.184,1.184,0,0,1-1.774,0c-1.347.784-3.008,1.821-5.161,1.291.29-1.216,1.354-1.656,2.9-1.612-1.994-1.586-4.288,1.568-6.775,0a3.581,3.581,0,0,1,2.9-1.291c-1.228-1.1-4.524.979-6.129-.484a4.086,4.086,0,0,1,3.386-.969c-.963-1.324-4.342.53-5.806-.805a2.6,2.6,0,0,1,3.065-.969c.171-.6-.606-.253-.484-.808-2.338.03-3.992-.63-4.839-2.1a2.9,2.9,0,0,1,3.065.645C2.307,26.664-1.734,27-2.327,24.738a2.856,2.856,0,0,1,2.9.647c-1.037-1.814-3.816-1.883-4.355-4.2,1.132-.5,2.056.5,2.742.97-.7-2.2-3.294-2.515-3.872-4.84.587-.593,2.27.238,2.419,1.129.345-2.44-2.884-2.707-2.742-5.484A3.012,3.012,0,0,1-2.81,14.9c.6-2.539-2.469-3.65-1.774-6.292a2.768,2.768,0,0,1,1.936,2.259c1.077-2.238-1.794-3.649-.807-6.29A2.719,2.719,0,0,1-1.841,7.32C-.314,5.584-3.022,3.781-2,1.191-.835,1.42-.52,2.505-.552,3.933c1.567-.951-.612-4.081.805-5.806.866.426,1.084,1.5.969,2.9C2.428.074,1.086-3.519,3-4.132A3.161,3.161,0,0,1,3.32-1.551c1.105-.617.775-4.063,2.258-4.839.757.2.584,2.146.161,2.581C7.564-4.028,7.2-7.83,9.448-8.164c.454.837-.142,1.857-.484,2.419,1.755-.5,2.343-2.174,5-1.774.075,2.763-4.042,1.335-5.322,2.741.881.3,2.3.063,2.9.646-.608,1.324-3.175.905-4.516.484a5.951,5.951,0,0,0-1.775,1.29A4.19,4.19,0,0,1,8.8-2.52C8.319-.475,3.91-2.358,3.32-.422A4.647,4.647,0,0,1,7.03-.26C6.167.919,4.322,1.12,2.191,1.029c-.4.242-.566.725-.807,1.129" transform="translate(5.235 8.164)" fill="#1f2951"/>
      </g>
      <g id="Groupe_934" data-name="Groupe 934" transform="translate(23.44 44.714)">
        <path id="Tracé_249" data-name="Tracé 249" d="M1.686,1.105A49.084,49.084,0,0,0-6.378-3.733C-4.284-5.439.254-1.82,1.848-.345c.111.647-.156.919-.162,1.45" transform="translate(6.378 4.181)" fill="#1f2951"/>
      </g>
      <g id="Groupe_935" data-name="Groupe 935" transform="translate(15.91)">
        <path id="Tracé_250" data-name="Tracé 250" d="M5.55,7.049c.5-.061,1.819-1.479,3.065-.808C8.431,8.378,4.549,8.192,3.454,9.952c.779-.506,2.174-1.2,3.225-.483-.769,1.972-4.09,1.392-5.484,2.741,1.226-.34,2.818.134,3.225,1.129-1.51,1.328-4.81-.621-5.806.807,1.42-.021,2.856-.059,3.225.969-1.751,1.363-4.659-.663-5.968.322,1.065.333,2.479.317,2.742,1.453-1.835,1.19-4.171-1.084-6.292-.325.91.491,2.294.5,2.42,1.775A5.787,5.787,0,0,1-10.1,17.211c-3.66,1.929-7.609,3.574-10.483,6.29-1.4-1.783,1.052-3,2.741-3.872a37.6,37.6,0,0,1,7.581-3.065c.874-1.277,1.366-2.933,3.064-3.386.391.726-.348,2.074-.967,2.741.384.32,1.211-.287,1.775-.321.341-1.648,1.06-2.919,2.581-3.389a3.659,3.659,0,0,1-.969,2.742C-2.5,14.7-3.58,11.09-1.547,10.6a2.983,2.983,0,0,1-.322,2.741c1.827.325.075-5.02,2.742-3.87a5,5,0,0,1-.322,2.258c1.97-1.005-.027-3.668,1.774-5.161.645.41.866,1.99.484,2.9.365.3.713-.783,1.129-.969-.564-1.2-.859-3.932.483-4.515.181.824.932,1.812.484,2.741C5.38,6.556,5.467,6,5.712,5.6c-.55-1.08-1.25-3.118-.484-4.515a4.153,4.153,0,0,1,1.29,2.9c.479-.331.425-1.19.807-1.612C6.707,1.148,5.467-.269,6.033-2.144A2.765,2.765,0,0,1,7.647.6c.5-.3.373-1.242.484-1.936C7.308-2.483,5.9-3.8,6.2-5.532a3.268,3.268,0,0,1,2.1,2.1c.369-.276.059-1.233.162-1.774C7.15-6.056,5.76-6.818,5.389-8.6A2.785,2.785,0,0,1,8.131-6.982c.467-.584-.1-1.507-.162-2.1-1.775-.267-3.181-.9-3.708-2.419,1.453-.109,2.6.085,3.225.807.049-.641-.373-.81-.322-1.452-1.85-.193-3.586-.5-4.194-1.936a3.6,3.6,0,0,1,3.387.322c-.035-.609-.507-.783-.645-1.29-1.879.071-3.907.123-4.677-1.291,1.027-.472,2.927-.773,3.87,0,.087-.572-.572-.4-.484-.967-2.131-.02-4.242-.058-5-1.452,1.049-.426,2.6-.719,3.548,0-.1-.594-.6-.8-.967-1.129a5.872,5.872,0,0,1-4.516-.807c.536-.827,2.495-.788,3.225-.161.255-.37-.822-.785-1.129-1.129-1.386.327-3.538.574-4.678-.162.24-1.052,1.6-.98,2.9-.969-1.139-1.6-5.357-.126-5.485-2.741,2.7-.445,3.452,1.065,5,1.774.1-.357-.993-1.641-.322-2.581,2.141.656,1.8,3.787,3.71,4.678a3.311,3.311,0,0,1-.161-2.9c2.042.8,1.3,4.028,2.419,5-.02-1.041-.1-2.144.484-2.581,1.923.663.469,4.185,1.774,5.161a2.983,2.983,0,0,1,.805-3.065C7.5-18.8,5.719-15.839,6.68-14.4c.4-.726.417-2.378,1.452-2.9,1.554,2.009-1.071,4.19-.162,6.129.67-.836.517-2.495,1.937-2.581.853,2.64-1.828,3.942-.969,6.13.6-.8.754-2.045,2.1-2.1C11.413-6.605,8.775-6.5,9.1-3.435c.551-.866,1.431-2.195,2.579-1.936C11.521-2.516,8.7-2.325,8.455.436c.751-.807,1.167-1.951,2.9-1.774-.463,2.6-3.284,2.846-4.033,5.161.833-.512,1.343-1.347,2.9-1.13C9.636,5.113,6.784,5.274,5.55,7.049" transform="translate(20.992 26.661)" fill="#1f2951"/>
      </g>
      <g id="Groupe_936" data-name="Groupe 936" transform="translate(9.917 14.718)">
        <path id="Tracé_251" data-name="Tracé 251" d="M0,.89a2.1,2.1,0,0,0-.021.295A2.053,2.053,0,0,0,.624,2.74a2.213,2.213,0,0,0,1.588.609,2.054,2.054,0,0,0,1.47-.558,2.187,2.187,0,0,0,.673-1.439l.273-2.481-1.7-.19L2.674,1.227c-.056.449-.231.673-.525.673q-.5,0-.463-.651l.467-4.427-1.7-.188Z" transform="translate(0.017 3.367)" fill="#1f2951"/>
      </g>
      <g id="Groupe_937" data-name="Groupe 937" transform="translate(10.417 9.579)">
        <path id="Tracé_252" data-name="Tracé 252" d="M.423.413q.063-.651.5-.651.463,0,.463.63,0,.064-.253,2.5l1.682.188Q3.092.645,3.092.666q0-2.229-2.354-2.229A1.882,1.882,0,0,0-1.3.372l-.3,2.873,1.7.188Z" transform="translate(1.6 1.563)" fill="#1f2951"/>
      </g>
      <path id="Tracé_863" data-name="Tracé 863" d="M.65.237-.127.2l.1-.918L-1.6-.9-2.46,4.651l1.66.063.463-3.048,1.051.043L.965,4.778l1.725.063L2.3-.465.614-.65Z" transform="translate(17.212 16.195)" fill="#1f2951"/>
      <path id="Tracé_864" data-name="Tracé 864" d="M.417.369l.159,3.9,1.673.186L1.826-1.291-.739-1.4l-.838,5.431,1.565.174Z" transform="translate(17.236 10.934)" fill="#1f2951"/>
      <path id="Tracé_865" data-name="Tracé 865" d="M.786.976l-2-.147L-1-2.009l2.039.126.1-1.535-3.721-.273-.393,5.575,3.682.408Z" transform="translate(23.341 13.606)" fill="#1f2951"/>
      <path id="Tracé_866" data-name="Tracé 866" d="M0,1.134l1.682.126L2.055-4.1.382-4.288Z" transform="translate(19.965 20.112)" fill="#1f2951"/>
      <path id="Tracé_867" data-name="Tracé 867" d="M0,.954l1.66.063.463-3.048,1.051.043.252,3.069,1.725.063L4.833-3.15.7-3.609Z" transform="translate(23.79 19.892)" fill="#1f2951"/>
      <path id="Tracé_868" data-name="Tracé 868" d="M.449.369.65,5.28l1.707.19-.5-6.761L-.707-1.4-1.7,5.02-.09,5.2Z" transform="translate(26.242 10.934)" fill="#1f2951"/>
      <path id="Tracé_869" data-name="Tracé 869" d="M.063.92,1.745.793,1.468-3.288l-1.707-.19Z" transform="translate(29.444 20.284)" fill="#1f2951"/>
      <g id="Groupe_938" data-name="Groupe 938" transform="translate(31.941 17.11)">
        <path id="Tracé_261" data-name="Tracé 261" d="M.01.311a5.84,5.84,0,0,0,.42,2.4l1.787-.126A5.26,5.26,0,0,1,1.8.269Q1.772-.455,1.732-.98l-1.769-.2Q0-.6.01.311" transform="translate(0.037 1.176)" fill="#1f2951"/>
      </g>
      <g id="Groupe_939" data-name="Groupe 939" transform="translate(28.73 9.726)">
        <path id="Tracé_262" data-name="Tracé 262" d="M.439,1.27a1.075,1.075,0,0,1,.21-.021c.449,0,.714.166.8.494a3.444,3.444,0,0,1,.073.5l1.766.2a4.781,4.781,0,0,0-.137-.829A1.429,1.429,0,0,0,1.6.535h-.19A1.707,1.707,0,0,0,3-1.252q0,.063-.147-1.64A1.9,1.9,0,0,0,.734-4.805q-.19,0-2.4.148l.453,6.594L.5,2.126ZM.1-3.48H.271a.827.827,0,0,1,.841.378,2.054,2.054,0,0,1,.168.967v1.3a.605.605,0,0,1-.273.588,1.942,1.942,0,0,1-.673.1Z" transform="translate(1.662 4.805)" fill="#1f2951"/>
      </g>
      <g id="Groupe_940" data-name="Groupe 940" transform="translate(34.364 17.379)">
        <path id="Tracé_263" data-name="Tracé 263" d="M.589.215V.383A.562.562,0,0,1,.316.93a3.475,3.475,0,0,1-.651.126L-.512-.623-2.227-.814l.357,3.425q.882-.063,1.787-.147a3.829,3.829,0,0,0,1.66-.5A1.731,1.731,0,0,0,2.292.447V.089L2.249-.317.513-.511Z" transform="translate(2.227 0.814)" fill="#1f2951"/>
      </g>
      <g id="Groupe_941" data-name="Groupe 941" transform="translate(33.544 9.243)">
        <path id="Tracé_264" data-name="Tracé 264" d="M.378.29C.574.276.714.269.8.269q.588,0,.651.652L2.095,7l1.736.192L3.152.773A1.931,1.931,0,0,0,.966-1.1q.023,0-2.395.273L-.645,6.7l1.716.19Z" transform="translate(1.429 1.097)" fill="#1f2951"/>
      </g>
      <path id="Tracé_870" data-name="Tracé 870" d="M0,.713l1.387.02.066-3.428-1.4.174Z" transform="translate(9.869 32.874)" fill="#1f2951"/>
      <path id="Tracé_871" data-name="Tracé 871" d="M.316,0-1.071-.017l-.123,7.248L.2,7.057Z" transform="translate(14.914 22.315)" fill="#1f2951"/>
      <path id="Tracé_872" data-name="Tracé 872" d="M.317.29.986,6.412l1.286-.161L1.516-1.055-1.07-1.1-1.2,6.684.2,6.51Z" transform="translate(11.128 23.332)" fill="#1f2951"/>
      <path id="Tracé_873" data-name="Tracé 873" d="M.319.525.08-1.778-1.2-1.619l.388,3.553,2.5.042.066-3.963L.358-1.813Z" transform="translate(13.355 31.694)" fill="#1f2951"/>
      <path id="Tracé_874" data-name="Tracé 874" d="M0,.93,1.66.994l.463-3.048,1.051.043.253,3.069L5.15,1.12,4.807-3.519.606-3Z" transform="translate(15.229 32.614)" fill="#1f2951"/>
      <path id="Tracé_875" data-name="Tracé 875" d="M.469.369l.2,4.969L2.351,5.13,1.877-1.291-.687-1.4l-1.086,7.04L-.1,5.435Z" transform="translate(17.661 23.631)" fill="#1f2951"/>
      <path id="Tracé_876" data-name="Tracé 876" d="M0,1.011,1.682,1.2l.523-5.023L.491-3.61Z" transform="translate(20.589 32.575)" fill="#1f2951"/>
      <path id="Tracé_877" data-name="Tracé 877" d="M.36,1.261.7,1.3,3.065,1l.554-5.312L1.937-4.5,1.474-.189l-.946-.1L.97-4.6l-1.66-.168-.671,6.326L.351,1.341Z" transform="translate(22.478 27.07)" fill="#1f2951"/>
      <path id="Tracé_878" data-name="Tracé 878" d="M0,1.139l1.682.19L2.27-4.307.547-4.093Z" transform="translate(23.238 32.72)" fill="#1f2951"/>
      <path id="Tracé_879" data-name="Tracé 879" d="M.483.044-1.2-.166l-.628,5.083L-.088,4.7Z" transform="translate(28.199 23.053)" fill="#1f2951"/>
      <path id="Tracé_880" data-name="Tracé 880" d="M.465.044l-1.682-.21-.541,4.4,1.731-.215Z" transform="translate(30.887 23.39)" fill="#1f2951"/>
      <g id="Groupe_942" data-name="Groupe 942" transform="translate(25.823 27.752)">
        <path id="Tracé_277" data-name="Tracé 277" d="M.563,1.022c-.056.435-.239.651-.546.651s-.441-.2-.441-.609V.9L.118-3.523l-1.739.216L-2.107.623A2.993,2.993,0,0,0-2.128.98a2.03,2.03,0,0,0,.641,1.535A2.217,2.217,0,0,0,.1,3.125a2.07,2.07,0,0,0,1.462-.536A2.23,2.23,0,0,0,2.244,1.17l.622-5.036-1.73.216Z" transform="translate(2.128 3.866)" fill="#1f2951"/>
      </g>
      <path id="Tracé_881" data-name="Tracé 881" d="M.3.919.08-3.244l-1.215.15.448,6.976,1.618.063L1.939-3.475l-1.1.137Z" transform="translate(34.54 30.523)" fill="#1f2951"/>
      <path id="Tracé_882" data-name="Tracé 882" d="M0,1.434,1.45,1.5,1.7-5.425l-1.46.181Z" transform="translate(31.456 32.887)" fill="#1f2951"/>
      <path id="Tracé_883" data-name="Tracé 883" d="M.322.4l.14,2.192,1.22-.152-.2-3.869-2.544-.085L-1.217,2.8.243,2.62Z" transform="translate(32.921 24.505)" fill="#1f2951"/>
      <path id="Tracé_884" data-name="Tracé 884" d="M0,1.606l1.555.042.258-7.723L.266-5.882Z" transform="translate(36.417 32.905)" fill="#1f2951"/>
      <path id="Tracé_885" data-name="Tracé 885" d="M.279.4.221,2.054l1.546-.192.109-3.29L-.584-1.513l-.47,3.726L.051,2.075Z" transform="translate(36.475 24.631)" fill="#1f2951"/>
    </g>
    <text id="En_partenariat_avec" data-name="En partenariat 
avec" transform="translate(1272 651.695)" fill="#1f2951" font-size="10" font-family="Roboto-Regular, Roboto"><tspan x="0.804" y="10">En partenariat </tspan><tspan x="21.629" y="20">avec</tspan></text>
  </g>
</svg>
