<svg xmlns="http://www.w3.org/2000/svg" width="56.965" height="42.341" viewBox="0 0 56.965 42.341">
  <g id="Groupe_1198" data-name="Groupe 1198" transform="translate(-986 -664)">
    <g id="Groupe_920" data-name="Groupe 920" transform="translate(999.858 666.787)">
      <path id="Tracé_235" data-name="Tracé 235" d="M.467,1.364h0a7.825,7.825,0,0,1,3.184.376l.247.1A6.848,6.848,0,0,1,6.423,3.518l.472-.042L2.275-5.157.445-5l-2.21,6.674c.7-.12,1.464-.247,2.232-.314M1.538-2.714,2.97.074.61.281Z" transform="translate(1.765 5.157)" fill="#f6af95"/>
    </g>
    <g id="Groupe_921" data-name="Groupe 921" transform="translate(992.826 680.283)">
      <path id="Tracé_236" data-name="Tracé 236" d="M.021,4.491a.308.308,0,0,0-.1.247c.005.059.129.107.187.1,4.8-.9,5.243-7.356,5.579-13.035.221-3.587.459-7,1.756-8.478a.362.362,0,0,0,.038-.242c-.064-.053-.128-.107-.241-.038-2.646,1-3.037,5.379-3.525,10C3.352-2.281,2.831,2.64.021,4.491" transform="translate(0.078 16.985)" fill="#f6af95"/>
    </g>
    <g id="Groupe_922" data-name="Groupe 922" transform="translate(989.859 667.378)">
      <path id="Tracé_237" data-name="Tracé 237" d="M.479.788,4.161,4.806A12.846,12.846,0,0,1,6.738,3.688L6.155-2.979l-1.947.171.48,5.487L.017-2.443l-1.828.161.779,8.91L.915,6.457.419.793Z" transform="translate(1.811 2.979)" fill="#f6af95"/>
    </g>
    <g id="Groupe_923" data-name="Groupe 923" transform="translate(1008.092 665.788)">
      <path id="Tracé_239" data-name="Tracé 239" d="M.467.788l4.8,5.288,1.653-.144-.78-8.91L4.2-2.808l.48,5.487L.065-2.448l-1.83.161.78,8.91L.962,6.452Z" transform="translate(1.765 2.979)" fill="#f6af95"/>
    </g>
    <g id="Groupe_924" data-name="Groupe 924" transform="translate(1016.649 665.106)">
      <path id="Tracé_240" data-name="Tracé 240" d="M.706,1.947l1.947-.171L2.034-5.3l2.6-.228L4.47-7.362l-7.14.626.161,1.828,2.6-.226Z" transform="translate(2.67 7.362)" fill="#f6af95"/>
    </g>
    <g id="Groupe_925" data-name="Groupe 925" transform="translate(1017.879 691.853)">
      <path id="Tracé_241" data-name="Tracé 241" d="M.407,0-1.54.171l.774,8.851,6.137-.536L5.217,6.714l-4.19.367Z" transform="translate(1.54)" fill="#f6af95"/>
    </g>
    <g id="Groupe_926" data-name="Groupe 926" transform="translate(1009.415 692.245)">
      <path id="Tracé_242" data-name="Tracé 242" d="M1.026,1.536A2.67,2.67,0,0,1-1.813-1.011a2.634,2.634,0,0,1,2.353-3A3.063,3.063,0,0,1,2.87-3.2L3.986-4.729a4.535,4.535,0,0,0-3.6-1.052A4.64,4.64,0,0,0-2.257-4.718,12.584,12.584,0,0,1-3.879-.83l.01.118A4.491,4.491,0,0,0,1.072,3.435a4.568,4.568,0,0,0,3.52-1.914L3.3.326a3.217,3.217,0,0,1-2.272,1.21" transform="translate(3.879 5.808)" fill="#f6af95"/>
    </g>
    <g id="Groupe_927" data-name="Groupe 927" transform="translate(1033.227 690.357)">
      <path id="Tracé_243" data-name="Tracé 243" d="M1.3.849A2.017,2.017,0,0,0,2.314-1.142a2.1,2.1,0,0,0-.725-1.483A3.116,3.116,0,0,0-.779-3.19l-4.131.362.779,8.91L.119,5.71C2.124,5.534,3.35,4.595,3.211,3A2.221,2.221,0,0,0,1.3.849M-2.877-1.342-.93-1.512C-.1-1.585.4-1.272.446-.741.5-.091,0,.25-.888.327l-1.83.161Zm4.05,4.165c.057.649-.448.99-1.275,1.062l-2.3.2-.171-1.947,2.243-.2c1-.087,1.446.23,1.5.88" transform="translate(4.91 3.213)" fill="#f6af95"/>
    </g>
    <g id="Groupe_928" data-name="Groupe 928" transform="translate(1024.488 690.77)">
      <path id="Tracé_244" data-name="Tracé 244" d="M1.29,1.1c.124,1.416-.522,2.186-1.7,2.29s-1.956-.6-2.08-2.018l-.439-5.016-1.947.169L-4.434,1.6c.228,2.6,1.821,3.825,4.181,3.619S3.529,3.577,3.291.864L2.853-4.152.846-3.978Z" transform="translate(4.878 4.152)" fill="#f6af95"/>
    </g>
    <g id="Groupe_929" data-name="Groupe 929" transform="translate(1024.439 664.461)">
      <path id="Tracé_245" data-name="Tracé 245" d="M1.389,1.506l-4.071.357L-2.843.033l4.19-.367L1.192-2.1-3-1.737l-.156-1.77,4.779-.419L1.473-5.7l-6.727.588L-4.475,3.8l5.133-.45a6.257,6.257,0,0,1,.731-1.847" transform="translate(5.254 5.696)" fill="#f6af95"/>
    </g>
    <g id="Groupe_930" data-name="Groupe 930" transform="translate(986 674.589)">
      <path id="Tracé_246" data-name="Tracé 246" d="M4.97,3.3C4.631,2.137,3.468.4-.433.677,3.029-3.253,4.243-7.045,3-9.672a5.574,5.574,0,0,0-5.595-2.78A14.521,14.521,0,0,0-14.869-2.579s-.092.306.09.349a.278.278,0,0,0,.408-.095c2.022-3.387,4.014-5.762,7.291-7.059,1.783-.692,4.5-.87,5.941-.044a3.541,3.541,0,0,1,1.5,2.247C.734-5.014-.762-1.732-4.226,2.853a.181.181,0,0,0,.02.235.3.3,0,0,0,.247.1c3.313-.884,5.477-.6,6.246.7C3.336,5.7,1.265,9.21-2.189,12.545c-3.282,3.261-9.359,5.16-12.4,4.415A2.315,2.315,0,0,1-16.7,14.528c.111-2.8,2.691-5.944,6.031-7.188.113-.068.166-.133.1-.245-.011-.119-.134-.167-.252-.157a10.638,10.638,0,0,0-5.7,3.472c-1.517,1.679-2.371,3.477-2.258,4.776a3.944,3.944,0,0,0,2.07,3.267,7.992,7.992,0,0,0,4.648.783,19.472,19.472,0,0,0,6.662-2.009C1.845,13.8,6.067,7.007,4.97,3.3" transform="translate(18.796 12.469)" fill="#f6af95"/>
    </g>
    <g id="Groupe_931" data-name="Groupe 931" transform="translate(1011.341 664)">
      <path id="Tracé_247" data-name="Tracé 247" d="M6.592,3.053c-.075-.172-.374-.2-.364-.087C5.271,6.974,1.555,10.035.348,8.475,0,7.911.817,6.353,1.593,5.037A2.144,2.144,0,0,0,1.771,3c-.59-1.315-2.6-1.854-3.023-1.935a6.066,6.066,0,0,0,.832-3.4l.059-.006c1.888-.164,3.157-1.287,3-3.057C2.507-6.936,1.448-7.5-.422-7.81c-1.57-.278-1.941-.425-1.991-1.014-.037-.413.345-.8,1.053-.866a4.188,4.188,0,0,1,2.38.684l.874-1.563a4.476,4.476,0,0,0-3.354-.956c-1.828.161-3.035,1.336-2.894,2.93C-4.2-6.825-2.98-6.455-1.168-6.138.337-5.913.659-5.645.7-5.172c.046.531-.4.867-1.226.939a2.863,2.863,0,0,1-.713,0c-.059.005-.182-.043-.242-.038l-.059.005c-.123-.048-.24-.038-.3-.092-.124-.048-.182-.043-.306-.092A2.808,2.808,0,0,1-3.081-4.9a4.407,4.407,0,0,0-.153,7.089c-.6,1.3-2.777,5.654-6.451,7.819-4.261,2.276-2.228-5.752.1-7.68,1.043-.982,2.362-.86,1.568.933a7.681,7.681,0,0,1-2.729,2.8c-.446.336-.228.793.229.575A7.6,7.6,0,0,0-6.141,2.264C-5.714,1.037-6.489.332-7.808.211a4.252,4.252,0,0,0-3.506,1.377A13.93,13.93,0,0,0-14.673,6.7a13.147,13.147,0,0,1-4.935,6.795c-3.82,1.88-2.737-5.47.059-8.152,1.044-.984,2.363-.861,1.569.933a7.811,7.811,0,0,1-2.67,2.791c-.618.411-.228.793.171.579A7.6,7.6,0,0,0-16.1,5.277c.427-1.226-.348-1.932-1.666-2.055-4.021-.421-7.379,6.056-7.151,8.652-.163,3.582,2.97,3.368,3.678,3.306,3.186-.279,5.651-4.063,6.34-5.015.445,1.685,2.005,1.846,3.362,1.727,5.375-.411,9.1-8.764,9.309-9.139,0,0,1.918.843,2.023,1.369s-1.927,3.8-1.421,4.821c.542,1.44,2.371,1.28,2.667,1.254,3.186-.279,4.8-4.226,5.133-5.207.517-.877.632-1.6.425-1.94M-2.3.62c-1.931-1.674-.566-3.757.049-3.513.98.33.355,2.7-.049,3.513" transform="translate(24.934 11.547)" fill="#f6af95"/>
    </g>
  </g>
</svg>
